<?xml version="1.0" standalone="no"?>
<!DOCTYPE svg PUBLIC "-//W3C//DTD SVG 1.1//EN"
  "http://www.w3.org/Graphics/SVG/1.1/DTD/svg11.dtd">
<svg version="1.1" xmlns="http://www.w3.org/2000/svg" xmlns:xlink="http://www.w3.org/1999/xlink" width="1792" height="1063" viewBox="-992 -32 1792 1063" id="ccdiagram"><filter id="grayscale"><feColorMatrix type="matrix" values="0.3333 0.3333 0.3333 0 0 0.3333 0.3333 0.3333 0 0 0.3333 0.3333 0.3333 0 0 0 0 0 1 0"></feColorMatrix></filter><defs><style type="text/css">@import url('https://fonts.googleapis.com/css?family=Open+Sans:400,700|Inconsolata:400');</style></defs><g><g style="pointer-events: none;"><g><pattern id="gridPatternMinor" x="0" y="37" width="128" height="74" patternUnits="userSpaceOnUse"><path d="M 0 0 L 128 74" stroke="#eee" stroke-width="1"></path><path d="M 128 0 L 0 74" stroke="#eee" stroke-width="1"></path></pattern><polygon points="0 0, 768 444, -192 999, -960 555" fill="url(#gridPatternMinor)"></polygon></g><polygon points="-960 555, -960 565, -192 1009, -192 999" stroke-linejoin="round" stroke="#54626f" stroke-width="1" fill="#f9f9f9"></polygon><polygon points="-192 1009, 768 454, 768 444, -192 999" stroke-linejoin="round" stroke="#54626f" stroke-width="1" fill="#e2e2e2"></polygon></g><g pointer-events="auto"><g opacity="1"><g id="88f72011-c7d4-4df5-b3ea-4427b6278584"><svg x="16" y="83" overflow="visible"><g fill="#e8e8e8"><polygon points="0 0, 620 359, 430 468, -190 110" stroke="#e8e8e8" stroke-width="40"></polygon></g></svg></g></g></g><g style="pointer-events: none;"><g><pattern id="gridPatternMajor" x="0" y="37" width="128" height="74" patternUnits="userSpaceOnUse"><path d="M 64 0 L 128 37 64 74 0 37 z" stroke="#54626f" stroke-width="1" fill="none"></path></pattern><polygon points="0 0, 768 444, -192 999, -960 555" fill="url(#gridPatternMajor)"></polygon></g></g><g pointer-events="auto"></g><g></g><g pointer-events="auto"></g><g></g><g pointer-events="auto"></g><g pointer-events="none"></g><g pointer-events="auto"><g><g cursor="cell"><line x1="-112" y1="490" x2="264" y2="499" stroke="red" stroke-width="14" opacity="0"></line><line x1="-112" y1="490" x2="264" y2="499" stroke="#cb0ba3" stroke-width="8" stroke-dasharray="14,10.5" stroke-linecap="butt"></line><polygon points="288 500, 246 487, 257 499, 244 510, 288 500" stroke-linejoin="round" fill="#cb0ba3" stroke="#cb0ba3" stroke-width="1"></polygon></g></g><g><g cursor="cell"><line x1="-80" y1="823" x2="-95" y2="570" stroke="red" stroke-width="15" opacity="0"></line><line x1="-80" y1="823" x2="-95" y2="570" stroke="#ff9800" stroke-width="9" stroke-dasharray="15,11.25" stroke-linecap="butt"></line><polygon points="-96 555, -116 582, -95 574, -73 581, -96 555" stroke-linejoin="round" fill="#ff9800" stroke="#ff9800" stroke-width="1"></polygon></g></g><g><g cursor="cell"><line x1="216" y1="680" x2="-96" y2="499" stroke="red" stroke-width="13" opacity="0"></line><line x1="216" y1="680" x2="-96" y2="499" stroke="#e208b5" stroke-width="7" stroke-dasharray="13,9.75" stroke-linecap="butt"></line><polygon points="-112 490, -97 514, -92 502, -71 499, -112 490" stroke-linejoin="round" fill="#e208b5" stroke="#e208b5" stroke-width="1"></polygon></g></g><g><g cursor="cell"><line x1="432" y1="416" x2="256" y2="241" stroke="red" stroke-width="16" opacity="0"></line><line x1="432" y1="416" x2="256" y2="241" stroke="#e91eba" stroke-width="10" stroke-dasharray="16,12" stroke-linecap="butt"></line></g></g><g><g cursor="cell"><line x1="-112" y1="490" x2="78" y2="397" stroke="red" stroke-width="14" opacity="0"></line><line x1="-112" y1="490" x2="78" y2="397" stroke="#ff9800" stroke-width="8" stroke-dasharray="14,10.5" stroke-linecap="butt"></line><polygon points="96 389, 50 396, 72 400, 76 413, 96 389" stroke-linejoin="round" fill="#ff9800" stroke="#ff9800" stroke-width="1"></polygon></g></g><g><g cursor="cell"><line x1="-368" y1="657" x2="-193" y2="555" stroke="red" stroke-width="14" opacity="0"></line><line x1="-368" y1="657" x2="-193" y2="555" stroke="#ff9800" stroke-width="8" stroke-dasharray="14,10.5" stroke-linecap="butt"></line><polygon points="-176 546, -221 555, -198 558, -192 572, -176 546" stroke-linejoin="round" fill="#ff9800" stroke="#ff9800" stroke-width="1"></polygon></g></g><g><g cursor="cell"><line x1="-592" y1="527" x2="-248" y2="501" stroke="red" stroke-width="14" opacity="0"></line><line x1="-592" y1="527" x2="-248" y2="501" stroke="#ff9800" stroke-width="8" stroke-dasharray="14,10.5" stroke-linecap="butt"></line><polygon points="-224 500, -269 491, -255 502, -264 514, -224 500" stroke-linejoin="round" fill="#ff9800" stroke="#ff9800" stroke-width="1"></polygon></g></g><g><g cursor="cell"><line x1="240" y1="305" x2="51" y2="196" stroke="red" stroke-width="16" opacity="0"></line><line x1="240" y1="305" x2="51" y2="196" stroke="#ff9800" stroke-width="10" stroke-dasharray="16,12" stroke-linecap="butt"></line><polygon points="32 185, 51 215, 57 199, 83 196, 32 185" stroke-linejoin="round" fill="#ff9800" stroke="#ff9800" stroke-width="1"></polygon></g></g><g><g cursor="cell"><line x1="256" y1="241" x2="72" y2="183" stroke="red" stroke-width="16" opacity="0"></line><line x1="256" y1="241" x2="72" y2="183" stroke="#e91eba" stroke-width="10" stroke-dasharray="16,12" stroke-linecap="butt"></line><polygon points="48 176, 80 201, 79 185, 102 178, 48 176" stroke-linejoin="round" fill="#e91eba" stroke="#e91eba" stroke-width="1"></polygon></g></g></g><g pointer-events="auto"><g opacity="1"><g id="fc6360ac-0adf-474e-979b-950e27ed9828" transform="translate(0 0)"><svg x="216" y="626" height="95.068" width="63" viewBox="0 0 16.669 25.153"><path d="M16.668 22.903q0 1.64-.864 2.091-.865.451-2.297-.376L3.161 18.645q-1.433-.827-2.297-2.276Q.001 14.921 0 13.28q0-.723.042-1.39.042-.666.166-1.394.124-.727.313-1.302.19-.575.51-1.039.319-.464.733-.683.414-.22 1.012-.147.598.073 1.32.49.107.06.497.58.391.52.882 1.165.491.646 1.279 1.394.788.75 1.58 1.207.793.458 1.58.618.788.161 1.28.083.49-.079.881-.147.39-.069.497-.007.722.416 1.32 1.035.598.619 1.013 1.315.414.697.734 1.531t.509 1.627q.19.793.313 1.664.124.872.166 1.586.042.713.042 1.438zM12.88 8.51q0 2.173-1.332 2.942-1.332.769-3.214-.318-1.882-1.086-3.214-3.393Q3.79 5.434 3.79 3.26q0-2.173 1.331-2.942 1.332-.77 3.214.317t3.214 3.394q1.332 2.306 1.332 4.48z" fill="#000000"></path></svg></g></g><g opacity="1"><g id="ba1f1693-7af7-4c70-ba74-dcad454148f2" transform="translate(0 0)"><svg x="-768" y="444" height="111" width="128" fill-rule="evenodd"><path d="M64 74v37l64-37V37L64 74z" fill="#b8b8bb"></path><path d="M0 37v37l64 37V74L0 37z" fill="#d2d2d4"></path><path d="M0 37L64 0l64 37-64 37L0 37z" fill="#ececed"></path><path d="M64 73.407l62.111-35.86.514.889-62.487 36.078h-.276L.743 38.072l.514-.89L64 73.407z" fill="#83838a"></path><path d="M63.486 74h1.027v36h-1.027z" fill="#83838a"></path><path d="M128 37v37l-64 37L0 74V37L64 0l64 37zM2.054 38.185v34.63L64 108.627l61.946-35.812v-34.63L64 2.373 2.054 38.185z" fill="#000000"></path></svg><svg x="-713" y="462" width="60" height="35" style="overflow: visible; cursor: default;"><rect transform="matrix(0.707 0.409 -0.707 0.409 0 0)" width="60" height="35" rx="5" ry="5" fill="#4286c5"></rect><text transform="matrix(0.707 0.409 -0.707 0.409 0 0)" font-family="Open Sans" font-size="20pt" text-anchor="middle" x="50%" y="75%" fill="#ffffff"><tspan>M5</tspan></text></svg></g></g><g opacity="1"><g id="0e5459fb-4cc4-4bb9-a510-1fa11a49ff43" transform="translate(0 0)"><g><polygon points="-480 574, -416 611, -480 648, -544 611" fill="#ececed"></polygon><polygon points="-544 648, -480 685, -480 648, -544 611" fill="#d2d2d4" stroke="#83838a"></polygon><polygon points="-480 685, -416 648, -416 611, -480 648" fill="#b8b8bb" stroke="#83838a"></polygon><polygon points="-480 574, -544 611, -544 648, -480 685, -416 648, -416 611" fill="none" stroke="#000000" stroke-width="2"></polygon></g></g></g><g opacity="1"><g id="3b8ad761-79ae-48a1-b287-c6b779e180d0" transform="translate(0 0)"><svg x="-256" y="740" height="111" width="128" fill-rule="evenodd"><path d="M64 74v37l64-37V37L64 74z" fill="#b8b8bb"></path><path d="M0 37v37l64 37V74L0 37z" fill="#d2d2d4"></path><path d="M0 37L64 0l64 37-64 37L0 37z" fill="#ececed"></path><path d="M64 73.407l62.111-35.86.514.889-62.487 36.078h-.276L.743 38.072l.514-.89L64 73.407z" fill="#83838a"></path><path d="M63.486 74h1.027v36h-1.027z" fill="#83838a"></path><path d="M128 37v37l-64 37L0 74V37L64 0l64 37zM2.054 38.185v34.63L64 108.627l61.946-35.812v-34.63L64 2.373 2.054 38.185z" fill="#000000"></path></svg><svg x="-201" y="758" width="60" height="35" style="overflow: visible; cursor: default;"><rect transform="matrix(0.707 0.409 -0.707 0.409 0 0)" width="60" height="35" rx="5" ry="5" fill="#4286c5"></rect><text transform="matrix(0.707 0.409 -0.707 0.409 0 0)" font-family="Open Sans" font-size="20pt" text-anchor="middle" x="50%" y="75%" fill="#ffffff"><tspan>M5</tspan></text></svg></g></g></g><g pointer-events="auto"><g opacity="1"><g id="37759aac-9e80-447a-8866-bb201e997b11" transform="translate(0 0)"><svg x="0" y="167" overflow="visible"><g transform="scale(2.1225000000000005) matrix(0.707 0.409 -0.707 0.409 0 0)"><svg x="-40" y="-40" width="80" height="80"><svg width="80" height="80" viewBox="0 0 80 80"><g fill="none" fill-rule="evenodd"><g><path d="M15 40c0 2.163.303 4.25.819 6.25H46.25a6.25 6.25 0 0 0 0-12.5H15.819c-.516 2-.819 4.087-.819 6.25" fill="#343741"></path><path d="M57.068 26.972a24.033 24.033 0 0 0 2.432-2.597C54.917 18.665 47.89 15 40 15c-9.877 0-18.377 5.747-22.432 14.063h34.168c1.978 0 3.88-.752 5.332-2.091" fill="#FEC514"></path><path d="M51.735 50.938H17.568C21.625 59.255 30.123 65 40 65c7.89 0 14.917-3.666 19.5-9.375a24.033 24.033 0 0 0-2.432-2.597 7.866 7.866 0 0 0-5.333-2.09" fill="#00BFB3"></path></g></g></svg></svg></g></svg></g></g><g opacity="1"><g id="a7b935a7-c264-4ba7-b8e6-a06acec3d6bc" transform="translate(0 0)"><svg x="240" y="305" overflow="visible"><g transform="scale(2.1225000000000005) matrix(0.707 0.409 -0.707 0.409 0 0)"><svg x="-40" y="-40" width="80" height="80"><svg width="80" height="80" viewBox="0 0 80 80"><g fill="none" fill-rule="evenodd"><g><path fill="#00BFB3" d="M44 65h17.188V46.25H44z"></path><path d="M20.563 15H19v31.25h20.313v-12.5c0-10.355-8.396-18.75-18.75-18.75" fill="#FEC514"></path><path d="M19 46.25C19 56.605 27.395 65 37.75 65h1.563V46.25H19z" fill="#343741"></path></g></g></svg></svg></g></svg></g></g><g opacity="1"><g id="0ec924ee-22f5-43e0-9d38-5a8544b7c841" transform="translate(0 0)"><svg x="432" y="416" overflow="visible"><g transform="scale(2.1225000000000005) matrix(0.707 0.409 -0.707 0.409 0 0)"><svg x="-40" y="-40" width="80" height="80"><svg width="80" height="80" viewBox="0 0 80 80"><g fill="none" fill-rule="evenodd"><g><path fill="#F04E98" d="M20 15v44.982l40-44.981z"></path><path d="M20 33.333v26.649l19.278-21.68A39.78 39.78 0 0 0 20 33.333" fill="#343741"></path><path d="M43.542 41.032L23.737 63.305 22.23 65h36.895c-2.078-9.805-7.767-18.258-15.583-23.968" fill="#00BFB3"></path></g></g></svg></svg></g></svg></g></g><g opacity="1"><g id="a20c1a31-bc6c-465b-816b-9ffd77425204" transform="translate(0 0)"><svg x="-608" y="555" overflow="visible"><g transform="scale(0.5660000000000002) matrix(0.707 0.409 -0.707 0.409 0 0)"><svg x="-112.5" y="-112.5" overflow="visible"><image xlink:href="https://images.cloudcraft.co/ce11aaeb-e560-4ef7-8cd7-76b84e066e6b/docker_container.png" width="225" height="225"></image></svg></g></svg></g></g><g opacity="1"><g id="5773a5d9-70a5-4cae-806f-96204b3193ab" transform="translate(0 0)"><svg x="-592" y="527" overflow="visible"><g transform="scale(1.415) matrix(0.707 0.409 -0.707 0.409 0 0)"><svg x="-40" y="-40" width="80" height="80"><svg width="80" height="80" viewBox="0 0 80 80"><g fill="none" fill-rule="evenodd"><g><path d="M37.188 46.25H20V15h17.188c8.628 0 15.624 6.997 15.624 15.625S45.816 46.25 37.188 46.25" fill="#07C"></path><path d="M55.472 39.413c-3.284 6.804-10.234 11.525-18.284 11.525H20V65h23.438c8.628 0 15.625-6.997 15.625-15.625a15.55 15.55 0 0 0-3.591-9.962" fill="#00BFB3"></path><path d="M51.778 36.178a15.534 15.534 0 0 0-8.34-2.428H20v12.5h17.187c6.672 0 12.349-4.188 14.591-10.072" fill="#343741"></path></g></g></svg></svg></g></svg></g></g><g opacity="1"><g id="104d1e1f-3ae0-4e87-8d36-9df4f9bd2332" transform="translate(0 0)"><svg x="-384" y="685" overflow="visible"><g transform="scale(0.5660000000000002) matrix(0.707 0.409 -0.707 0.409 0 0)"><svg x="-112.5" y="-112.5" overflow="visible"><image xlink:href="https://images.cloudcraft.co/ce11aaeb-e560-4ef7-8cd7-76b84e066e6b/docker_container.png" width="225" height="225"></image></svg></g></svg></g></g><g opacity="1"><g id="8b8ada68-aa6b-44db-9c56-fcf5edeb4236" transform="translate(0 0)"><svg x="-368" y="657" overflow="visible"><g transform="scale(1.415) matrix(0.707 0.409 -0.707 0.409 0 0)"><svg x="-40" y="-40" width="80" height="80"><svg width="80" height="80" viewBox="0 0 80 80"><g fill="none" fill-rule="evenodd"><g><path d="M37.188 46.25H20V15h17.188c8.628 0 15.624 6.997 15.624 15.625S45.816 46.25 37.188 46.25" fill="#07C"></path><path d="M55.472 39.413c-3.284 6.804-10.234 11.525-18.284 11.525H20V65h23.438c8.628 0 15.625-6.997 15.625-15.625a15.55 15.55 0 0 0-3.591-9.962" fill="#00BFB3"></path><path d="M51.778 36.178a15.534 15.534 0 0 0-8.34-2.428H20v12.5h17.187c6.672 0 12.349-4.188 14.591-10.072" fill="#343741"></path></g></g></svg></svg></g></svg></g></g><g opacity="1"><g id="51a5a340-d609-48a4-843e-c2dcd67518c6" transform="translate(0 0)"><svg x="-96" y="851" overflow="visible"><g transform="scale(0.5660000000000002) matrix(0.707 0.409 -0.707 0.409 0 0)"><svg x="-112.5" y="-112.5" overflow="visible"><image xlink:href="https://images.cloudcraft.co/ce11aaeb-e560-4ef7-8cd7-76b84e066e6b/docker_container.png" width="225" height="225"></image></svg></g></svg></g></g><g opacity="1"><g id="ba8a0635-e0f6-458f-ba28-979409e1f14e" transform="translate(0 0)"><svg x="-80" y="823" overflow="visible"><g transform="scale(1.415) matrix(0.707 0.409 -0.707 0.409 0 0)"><svg x="-40" y="-40" width="80" height="80"><svg width="80" height="80" viewBox="0 0 80 80"><g fill="none" fill-rule="evenodd"><g><path d="M37.188 46.25H20V15h17.188c8.628 0 15.624 6.997 15.624 15.625S45.816 46.25 37.188 46.25" fill="#07C"></path><path d="M55.472 39.413c-3.284 6.804-10.234 11.525-18.284 11.525H20V65h23.438c8.628 0 15.625-6.997 15.625-15.625a15.55 15.55 0 0 0-3.591-9.962" fill="#00BFB3"></path><path d="M51.778 36.178a15.534 15.534 0 0 0-8.34-2.428H20v12.5h17.187c6.672 0 12.349-4.188 14.591-10.072" fill="#343741"></path></g></g></svg></svg></g></svg></g></g><g opacity="1"><g id="de74ff3d-fa0c-4425-b7a2-3e8a98cab3f5" transform="translate(0 0)"><svg x="384" y="962" overflow="visible"><g transform="scale(0.5000000000000001) "><svg x="-112.5" y="-112.5" overflow="visible"><image xlink:href="https://images.cloudcraft.co/ce11aaeb-e560-4ef7-8cd7-76b84e066e6b/docker_container.png" width="225" height="225"></image></svg></g></svg></g></g><g opacity="1"><g id="decc6610-fde2-40e9-8a39-faeb490e04ca" transform="translate(0 0)"><svg x="368" y="934" overflow="visible"><g transform=" "><svg x="-40" y="-40" width="80" height="80"><svg width="80" height="80" viewBox="0 0 80 80"><g fill="none" fill-rule="evenodd"><g><path d="M37.188 46.25H20V15h17.188c8.628 0 15.624 6.997 15.624 15.625S45.816 46.25 37.188 46.25" fill="#07C"></path><path d="M55.472 39.413c-3.284 6.804-10.234 11.525-18.284 11.525H20V65h23.438c8.628 0 15.625-6.997 15.625-15.625a15.55 15.55 0 0 0-3.591-9.962" fill="#00BFB3"></path><path d="M51.778 36.178a15.534 15.534 0 0 0-8.34-2.428H20v12.5h17.187c6.672 0 12.349-4.188 14.591-10.072" fill="#343741"></path></g></g></svg></svg></g></svg></g></g><g opacity="1"><g id="ed0c6079-2ff4-4af5-9c52-b94768626bd6" transform="translate(0 0)"><svg x="400" y="860" overflow="visible"><g transform="scale(1.1) "><svg x="-40" y="-40" width="80" height="80"><svg width="80" height="80" viewBox="0 0 80 80"><g fill="none" fill-rule="evenodd"><g><path fill="#F04E98" d="M20 15v44.982l40-44.981z"></path><path d="M20 33.333v26.649l19.278-21.68A39.78 39.78 0 0 0 20 33.333" fill="#343741"></path><path d="M43.542 41.032L23.737 63.305 22.23 65h36.895c-2.078-9.805-7.767-18.258-15.583-23.968" fill="#00BFB3"></path></g></g></svg></svg></g></svg></g></g><g opacity="1"><g id="767b5015-83e0-4bb1-a273-23ba770a7e39" transform="translate(0 0)"><svg x="400" y="786" overflow="visible"><g transform=" "><svg x="-40" y="-40" width="80" height="80"><svg width="80" height="80" viewBox="0 0 80 80"><g fill="none" fill-rule="evenodd"><g><path fill="#00BFB3" d="M44 65h17.188V46.25H44z"></path><path d="M20.563 15H19v31.25h20.313v-12.5c0-10.355-8.396-18.75-18.75-18.75" fill="#FEC514"></path><path d="M19 46.25C19 56.605 27.395 65 37.75 65h1.563V46.25H19z" fill="#343741"></path></g></g></svg></svg></g></svg></g></g><g opacity="1"><g id="84ba3920-232a-45a6-b9b5-eb5675a8648c" transform="translate(0 0)"><svg x="400" y="712" overflow="visible"><g transform=" "><svg x="-40" y="-40" width="80" height="80"><svg width="80" height="80" viewBox="0 0 80 80"><g fill="none" fill-rule="evenodd"><g><path d="M15 40c0 2.163.303 4.25.819 6.25H46.25a6.25 6.25 0 0 0 0-12.5H15.819c-.516 2-.819 4.087-.819 6.25" fill="#343741"></path><path d="M57.068 26.972a24.033 24.033 0 0 0 2.432-2.597C54.917 18.665 47.89 15 40 15c-9.877 0-18.377 5.747-22.432 14.063h34.168c1.978 0 3.88-.752 5.332-2.091" fill="#FEC514"></path><path d="M51.735 50.938H17.568C21.625 59.255 30.123 65 40 65c7.89 0 14.917-3.666 19.5-9.375a24.033 24.033 0 0 0-2.432-2.597 7.866 7.866 0 0 0-5.333-2.09" fill="#00BFB3"></path></g></g></svg></svg></g></svg></g></g></g><g pointer-events="auto"><g opacity="1"><g id="82a17721-3933-4629-a9ee-476c1ce6f19e" transform="translate(0 0)"><svg x="-112" y="490" overflow="visible"><g transform="scale(4.264961199760036) matrix(0.707 0.409 -0.707 0.409 0 0)"><circle cx="0" cy="0" fill="#03a9f4" r="24"></circle><svg width="34" height="32" x="-17" y="-16" style="fill: rgb(255, 255, 255);"><svg xmlns="http://www.w3.org/2000/svg" width="34" height="32" viewBox="0 0 34 32"><path d="M34.286 20.571a6.858 6.858 0 0 1-6.857 6.857H8c-4.411 0-8-3.589-8-8a7.993 7.993 0 0 1 4.607-7.232c-.018-.25-.036-.518-.036-.768a9.137 9.137 0 0 1 9.143-9.143c3.821 0 7.089 2.339 8.464 5.679a4.439 4.439 0 0 1 2.964-1.107 4.58 4.58 0 0 1 4.571 4.571 4.49 4.49 0 0 1-.732 2.464c3.036.714 5.304 3.429 5.304 6.679z"></path></svg></svg></g></svg></g></g></g><g pointer-events="auto"><g opacity="1"><g id="6b22873b-fd2b-4b6e-9cbf-c55c34b28c0b" transform="translate(0 0)"><svg x="48" y="28" overflow="visible"><text stroke="#ffffff" stroke-width="4" font-family="Open Sans" y="65" font-size="50pt" fill="#000000" font-weight="bold" transform="matrix(0.707, 0.409, 0, 0.816, 0, 0)" xml:space="preserve"><tspan x="8" dy="0">stack server</tspan></text><text font-family="Open Sans" y="65" font-size="50pt" fill="#000000" font-weight="bold" transform="matrix(0.707, 0.409, 0, 0.816, 0, 0)" xml:space="preserve"><tspan x="8" dy="0">stack server</tspan></text></svg></g></g><g opacity="1"><g id="56c71c57-d05d-4471-87fe-93d41a4d46f9" transform="translate(0 0)"><svg x="-832" y="500" overflow="visible"><text stroke="#ffffff" stroke-width="4" font-family="Open Sans" y="36.5" font-size="25pt" fill="#000000" font-weight="bold" transform="matrix(0.707 0.409 -0.707 0.409 0 0)" xml:space="preserve"><tspan x="8" dy="0">Rancher w/docker </tspan><tspan x="8" dy="1.1em">containers</tspan></text><text font-family="Open Sans" y="36.5" font-size="25pt" fill="#000000" font-weight="bold" transform="matrix(0.707 0.409 -0.707 0.409 0 0)" xml:space="preserve"><tspan x="8" dy="0">Rancher w/docker </tspan><tspan x="8" dy="1.1em">containers</tspan></text></svg></g></g><g opacity="1"><g id="6cb483a1-b36a-493f-a85c-da350022c900" transform="translate(0 0)"><svg x="-560" y="638" overflow="visible"><text stroke="#ffffff" stroke-width="4" font-family="Open Sans" y="36.5" font-size="25pt" fill="#000000" font-weight="bold" transform="matrix(0.707 0.409 -0.707 0.409 0 0)" xml:space="preserve"><tspan x="8" dy="0">On premise</tspan><tspan x="8" dy="1.1em">server</tspan></text><text font-family="Open Sans" y="36.5" font-size="25pt" fill="#000000" font-weight="bold" transform="matrix(0.707 0.409 -0.707 0.409 0 0)" xml:space="preserve"><tspan x="8" dy="0">On premise</tspan><tspan x="8" dy="1.1em">server</tspan></text></svg></g></g><g opacity="1"><g id="c99b6284-c04e-46ad-84a8-83e1358d1ee0" transform="translate(0 0)"><svg x="-320" y="777" overflow="visible"><text stroke="#ffffff" stroke-width="4" font-family="Open Sans" y="36.5" font-size="25pt" fill="#000000" font-weight="bold" transform="matrix(0.707 0.409 -0.707 0.409 0 0)" xml:space="preserve"><tspan x="8" dy="0">EC2  running native</tspan><tspan x="8" dy="1.1em">app/service</tspan></text><text font-family="Open Sans" y="36.5" font-size="25pt" fill="#000000" font-weight="bold" transform="matrix(0.707 0.409 -0.707 0.409 0 0)" xml:space="preserve"><tspan x="8" dy="0">EC2  running native</tspan><tspan x="8" dy="1.1em">app/service</tspan></text></svg></g></g><g opacity="1"><g id="1ba605c8-7b45-4662-8200-697f9c125344" transform="translate(0 0)"><svg x="80" y="324" overflow="visible"><text stroke="#ffffff" stroke-width="4" font-family="Open Sans" y="36.5" font-size="25pt" fill="#ff9800" font-weight="bold" transform="matrix(0.707 0.409 -0.707 0.409 0 0)" xml:space="preserve"><tspan x="8" dy="0">port 5044</tspan></text><text font-family="Open Sans" y="36.5" font-size="25pt" fill="#ff9800" font-weight="bold" transform="matrix(0.707 0.409 -0.707 0.409 0 0)" xml:space="preserve"><tspan x="8" dy="0">port 5044</tspan></text></svg></g></g><g opacity="1"><g id="17c40ed4-3960-4b20-bc1c-fb1bd3885262" transform="translate(0 0)"><svg x="288" y="444" overflow="visible"><text stroke="#ffffff" stroke-width="4" font-family="Open Sans" y="36.5" font-size="25pt" fill="#e91eba" font-weight="bold" transform="matrix(0.707 0.409 -0.707 0.409 0 0)" xml:space="preserve"><tspan x="8" dy="0">port 5601</tspan></text><text font-family="Open Sans" y="36.5" font-size="25pt" fill="#e91eba" font-weight="bold" transform="matrix(0.707 0.409 -0.707 0.409 0 0)" xml:space="preserve"><tspan x="8" dy="0">port 5601</tspan></text></svg></g></g><g opacity="1"><g id="110532dc-4296-49b5-b729-347919f3dc08" transform="translate(0 0)"><svg x="-144" y="194" overflow="visible"><text stroke="#ffffff" stroke-width="4" font-family="Open Sans" y="36.5" font-size="25pt" fill="#009688" font-weight="bold" transform="matrix(0.707 0.409 -0.707 0.409 0 0)" xml:space="preserve"><tspan x="8" dy="0">port 9200</tspan></text><text font-family="Open Sans" y="36.5" font-size="25pt" fill="#009688" font-weight="bold" transform="matrix(0.707 0.409 -0.707 0.409 0 0)" xml:space="preserve"><tspan x="8" dy="0">port 9200</tspan></text></svg></g></g><g opacity="1"><g id="5e7ef45c-9b02-4aa9-943f-598f2fff3d4a" transform="translate(0 0)"><svg x="288" y="648" overflow="visible"><text stroke="#ffffff" stroke-width="4" font-family="Open Sans" y="36.5" font-size="25pt" fill="#000000" font-weight="bold" transform="matrix(0.707 0.409 -0.707 0.409 0 0)" xml:space="preserve"><tspan x="8" dy="0">user</tspan></text><text font-family="Open Sans" y="36.5" font-size="25pt" fill="#000000" font-weight="bold" transform="matrix(0.707 0.409 -0.707 0.409 0 0)" xml:space="preserve"><tspan x="8" dy="0">user</tspan></text></svg></g></g><g opacity="1"><g id="abd5781a-38a0-4c10-b40c-57d7554d42f3" transform="translate(0 0)"><svg x="-128" y="444" overflow="visible"><text stroke="#ffffff" stroke-width="4" font-family="Open Sans" y="36.5" font-size="25pt" fill="#000000" font-weight="bold" transform="matrix(0.707 0.409 -0.707 0.409 0 0)" xml:space="preserve"><tspan x="8" dy="0">Cloud</tspan><tspan x="8" dy="1.1em">or LAN</tspan></text><text font-family="Open Sans" y="36.5" font-size="25pt" fill="#000000" font-weight="bold" transform="matrix(0.707 0.409 -0.707 0.409 0 0)" xml:space="preserve"><tspan x="8" dy="0">Cloud</tspan><tspan x="8" dy="1.1em">or LAN</tspan></text></svg></g></g><g opacity="1"><g id="173d94e4-d9a9-4346-a4b2-ae8f763f1911" transform="translate(0 0)"><svg x="0" y="555" overflow="visible"><text stroke="#ffffff" stroke-width="4" font-family="Open Sans" y="36.5" font-size="25pt" fill="#e91eba" font-weight="bold" transform="matrix(0.707 0.409 -0.707 0.409 0 0)" xml:space="preserve"><tspan x="8" dy="0">https://&lt;url&gt;:5601</tspan></text><text font-family="Open Sans" y="36.5" font-size="25pt" fill="#e91eba" font-weight="bold" transform="matrix(0.707 0.409 -0.707 0.409 0 0)" xml:space="preserve"><tspan x="8" dy="0">https://&lt;url&gt;:5601</tspan></text></svg></g></g><g opacity="1"><g id="21e914ee-a5bc-47f8-9492-12dfb27961d5" transform="translate(0 0)"><svg x="176" y="176" overflow="visible"><text stroke="#ffffff" stroke-width="4" font-family="Open Sans" y="36.5" font-size="25pt" fill="#000000" font-weight="bold" transform="matrix(0.707 0.409 -0.707 0.409 0 0)" xml:space="preserve"><tspan x="8" dy="0">query log database</tspan></text><text font-family="Open Sans" y="36.5" font-size="25pt" fill="#000000" font-weight="bold" transform="matrix(0.707 0.409 -0.707 0.409 0 0)" xml:space="preserve"><tspan x="8" dy="0">query log database</tspan></text></svg></g></g><g opacity="1"><g id="f4a869c8-140c-4d73-b609-b949acca145c" transform="translate(0 0)"><svg x="128" y="296" overflow="visible"><text stroke="#ffffff" stroke-width="4" font-family="Open Sans" y="36.5" font-size="25pt" fill="#000000" font-weight="bold" transform="matrix(0.707 0.409 -0.707 0.409 0 0)" xml:space="preserve"><tspan x="8" dy="0">receive/process </tspan><tspan x="8" dy="1.1em">logs</tspan></text><text font-family="Open Sans" y="36.5" font-size="25pt" fill="#000000" font-weight="bold" transform="matrix(0.707 0.409 -0.707 0.409 0 0)" xml:space="preserve"><tspan x="8" dy="0">receive/process </tspan><tspan x="8" dy="1.1em">logs</tspan></text></svg></g></g><g opacity="1"><g id="7f712188-a392-40ea-8a8e-0a4d795dd4d6" transform="translate(0 0)"><svg x="64" y="204" overflow="visible"><text stroke="#ffffff" stroke-width="4" font-family="Open Sans" y="36.5" font-size="25pt" fill="#000000" font-weight="bold" transform="matrix(0.707 0.409 -0.707 0.409 0 0)" xml:space="preserve"><tspan x="8" dy="0">upload logs</tspan></text><text font-family="Open Sans" y="36.5" font-size="25pt" fill="#000000" font-weight="bold" transform="matrix(0.707 0.409 -0.707 0.409 0 0)" xml:space="preserve"><tspan x="8" dy="0">upload logs</tspan></text></svg></g></g><g opacity="1"><g id="76c17563-f80d-4ea6-8f45-d0b64910f8b2" transform="translate(0 0)"><svg x="-112" y="139" overflow="visible"><text stroke="#ffffff" stroke-width="4" font-family="Open Sans" y="36.5" font-size="25pt" fill="#000000" font-weight="bold" transform="matrix(0.707 0.409 -0.707 0.409 0 0)" xml:space="preserve"><tspan x="8" dy="0">log storage</tspan></text><text font-family="Open Sans" y="36.5" font-size="25pt" fill="#000000" font-weight="bold" transform="matrix(0.707 0.409 -0.707 0.409 0 0)" xml:space="preserve"><tspan x="8" dy="0">log storage</tspan></text></svg></g></g><g opacity="1"><g id="a4b70e78-ebc6-495c-b1e8-f1d98d8f26cf" transform="translate(0 0)"><svg x="-48" y="-28" overflow="visible"><text stroke="#ffffff" stroke-width="4" font-family="Open Sans" y="65" font-size="50pt" fill="#009688" font-weight="bold" transform="matrix(0.707, 0.409, 0, 0.816, 0, 0)" xml:space="preserve"><tspan x="8" dy="0">E</tspan></text><text font-family="Open Sans" y="65" font-size="50pt" fill="#009688" font-weight="bold" transform="matrix(0.707, 0.409, 0, 0.816, 0, 0)" xml:space="preserve"><tspan x="8" dy="0">E</tspan></text></svg></g></g><g opacity="1"><g id="12a7822a-0e61-4c51-9806-cfaac7d5cfd3" transform="translate(0 0)"><svg x="-16" y="-9" overflow="visible"><text stroke="#ffffff" stroke-width="4" font-family="Open Sans" y="65" font-size="50pt" fill="#ffc107" font-weight="bold" transform="matrix(0.707, 0.409, 0, 0.816, 0, 0)" xml:space="preserve"><tspan x="8" dy="0">L</tspan></text><text font-family="Open Sans" y="65" font-size="50pt" fill="#ffc107" font-weight="bold" transform="matrix(0.707, 0.409, 0, 0.816, 0, 0)" xml:space="preserve"><tspan x="8" dy="0">L</tspan></text></svg></g></g><g opacity="1"><g id="1f7c5b9d-569a-40c1-bb43-c6f3b519337e" transform="translate(0 0)"><svg x="16" y="9" overflow="visible"><text stroke="#ffffff" stroke-width="4" font-family="Open Sans" y="65" font-size="50pt" fill="#cb0ba3" font-weight="bold" transform="matrix(0.707, 0.409, 0, 0.816, 0, 0)" xml:space="preserve"><tspan x="8" dy="0">K</tspan><tspan x="8" dy="1.1em"> </tspan></text><text font-family="Open Sans" y="65" font-size="50pt" fill="#cb0ba3" font-weight="bold" transform="matrix(0.707, 0.409, 0, 0.816, 0, 0)" xml:space="preserve"><tspan x="8" dy="0">K</tspan><tspan x="8" dy="1.1em"> </tspan></text></svg></g></g><g opacity="1"><g id="75008644-72fc-41b3-82d5-614c6232e98d" transform="translate(0 0)"><svg x="640" y="629" overflow="visible"><text stroke="#ffffff" stroke-width="4" font-family="Open Sans" y="30.799999999999997" font-size="20pt" fill="#000000" font-weight="bold" transform="" xml:space="preserve"><tspan x="8" dy="0">LEGEND:</tspan></text><text font-family="Open Sans" y="30.799999999999997" font-size="20pt" fill="#000000" font-weight="bold" transform="" xml:space="preserve"><tspan x="8" dy="0">LEGEND:</tspan></text></svg></g></g><g opacity="1"><g id="438e0166-0fba-46d0-8f26-68bee872330d" transform="translate(0 0)"><svg x="432" y="916" overflow="visible"><text stroke="#ffffff" stroke-width="4" font-family="Open Sans" y="26.24" font-size="16pt" fill="#000000" font-weight="bold" transform="" xml:space="preserve"><tspan x="8" dy="0">= container running: filebeat, </tspan><tspan x="8" dy="1.1em">metricbeat, or hearbeat</tspan><tspan x="8" dy="1.1em"> </tspan></text><text font-family="Open Sans" y="26.24" font-size="16pt" fill="#000000" font-weight="bold" transform="" xml:space="preserve"><tspan x="8" dy="0">= container running: filebeat, </tspan><tspan x="8" dy="1.1em">metricbeat, or hearbeat</tspan><tspan x="8" dy="1.1em"> </tspan></text></svg></g></g><g opacity="1"><g id="c9851b3c-42e4-43ce-b894-0722fda0b7b2" transform="translate(0 0)"><svg x="352" y="426" overflow="visible"><text stroke="#ffffff" stroke-width="4" font-family="Open Sans" y="36.5" font-size="25pt" fill="#000000" font-weight="bold" transform="matrix(0.707 0.409 -0.707 0.409 0 0)" xml:space="preserve"><tspan x="8" dy="0">graphs/charts</tspan></text><text font-family="Open Sans" y="36.5" font-size="25pt" fill="#000000" font-weight="bold" transform="matrix(0.707 0.409 -0.707 0.409 0 0)" xml:space="preserve"><tspan x="8" dy="0">graphs/charts</tspan></text></svg></g></g><g opacity="1"><g id="c7f11282-be69-4417-844e-668a918bc221" transform="translate(0 0)"><svg x="432" y="842" overflow="visible"><text stroke="#ffffff" stroke-width="4" font-family="Open Sans" y="26.24" font-size="16pt" fill="#000000" font-weight="bold" transform="" xml:space="preserve"><tspan x="8" dy="0">= Kibana - visualization</tspan></text><text font-family="Open Sans" y="26.24" font-size="16pt" fill="#000000" font-weight="bold" transform="" xml:space="preserve"><tspan x="8" dy="0">= Kibana - visualization</tspan></text></svg></g></g><g opacity="1"><g id="ca6dc3b9-aacc-4359-88de-a135f0ee6dce" transform="translate(0 0)"><svg x="432" y="768" overflow="visible"><text stroke="#ffffff" stroke-width="4" font-family="Open Sans" y="26.24" font-size="16pt" fill="#000000" font-weight="bold" transform="" xml:space="preserve"><tspan x="8" dy="0">= Logstash - processor</tspan></text><text font-family="Open Sans" y="26.24" font-size="16pt" fill="#000000" font-weight="bold" transform="" xml:space="preserve"><tspan x="8" dy="0">= Logstash - processor</tspan></text></svg></g></g><g opacity="1"><g id="6350c3d6-5dc0-4523-839f-b9db97175ca5" transform="translate(0 0)"><svg x="432" y="694" overflow="visible"><text stroke="#ffffff" stroke-width="4" font-family="Open Sans" y="26.24" font-size="16pt" fill="#000000" font-weight="bold" transform="" xml:space="preserve"><tspan x="8" dy="0">= Elasticsearch - database</tspan></text><text font-family="Open Sans" y="26.24" font-size="16pt" fill="#000000" font-weight="bold" transform="" xml:space="preserve"><tspan x="8" dy="0">= Elasticsearch - database</tspan></text></svg></g></g></g><g></g></g></svg>